{"title":"Live Free or Die Hard*2007*[BluRay][1080p][ENG, POL]","uid":5892082,"size":6394543596,"categoryP":"video","categoryS":"hd___movies","magnet":"?xt=urn:btih:f03e7abeb2edb834a000203ae5532a2850693e0c&amp;dn=Live+Free+or+Die+Hard%2A2007%2A%5BBluRay%5D%5B1080p%5D%5BENG%2C+POL%5D&amp;tr=udp%3A%2F%2Ftracker.openbittorrent.com%3A80&amp;tr=udp%3A%2F%2Fopen.demonii.com%3A1337&amp;tr=udp%3A%2F%2Ftracker.coppersurfer.tk%3A6969&amp;tr=udp%3A%2F%2Fexodus.desync.com%3A6969","seeders":0,"leechers":3,"uploader":"albedo040","files":1,"time":1287309035,"description":"Live Free or Die Hard*2007*[BluRay][1080p][ENG, POL]\n\nGeneral information:\nCountry: USA, UK \nRelease: 12 June 2007\nGenre: Action, Crime, Thriller\nDirector: Len Wiseman\nScreenplay: Mark Bomback, Mark Bomback (story)\nOriginal Music: Marco Beltrami\nCinematography by: Simon Duggan\nDuration: 2h 8mn\nLanguage: English, Polish\nSubtitles: English, Polish\nRating: 7.3/10 - 26706 votes\n\nCast:\nBruce Willis  ...  John McClane  \nTimothy Olyphant  ...  Thomas Gabriel  \nJustin Long  ...  Matthew 'Matt' Farrell  \nMaggie Q  ...  Mai Linh  \nCliff Curtis  ...  FBI Deputy Director Miguel Bowman  \nJonathan Sadowski  ...  Trey  \nAndrew Friedman  ...  Casper  \nKevin Smith  ...  Frederick 'Warlock' Kaludis  \nYorgo Constantine  ...  Russo  \nCyril Raffaelli  ...  Rand  \nChris Palermo  ...  Del (as Christopher Palermo)  \nMary Elizabeth Winstead  ...  Lucy Gennaro McClane  \nSung Kang  ...  Raj  \nZeljko Ivanek  ...  Agent Molina  \nChristina Chang  ...  Taylor  \n\nPlot:\nJohn McClane takes on an Internet-based terrorist organization who is systematically shutting down the United States. \n\nSpecifications:\nGeneral\nFormat                           : Matroska\nOverall bit rate                 : 6 624 Kbps\n\nVideo\nFormat                           : AVC\nFormat/Info                      : Advanced Video Codec\nFormat profile                   : &lt;a class=&quot;__cf_email__&quot; href=&quot;/cdn-cgi/l/email-protection&quot; data-cfemail=&quot;0149686669414d352f31&quot;&gt;[email&amp;#160;protected]&lt;/a&gt;&lt;script cf-hash='f9e31' type=&quot;text/javascript&quot;&gt;\n/* &lt;![CDATA[ */!function(){try{var t=&quot;currentScript&quot;in document?document.currentScript:function(){for(var t=document.getElementsByTagName(&quot;script&quot;),e=t.length;e--;)if(t[e].getAttribute(&quot;cf-hash&quot;))return t[e]}();if(t&amp;&amp;t.previousSibling){var e,r,n,i,c=t.previousSibling,a=c.getAttribute(&quot;data-cfemail&quot;);if(a){for(e=&quot;&quot;,r=parseInt(a.substr(0,2),16),n=2;a.length-n;n+=2)i=parseInt(a.substr(n,2),16)^r,e+=String.fromCharCode(i);e=document.createTextNode(e),c.parentNode.replaceChild(e,c)}}}catch(u){}}();/* ]]&gt; */&lt;/script&gt;\nFormat settings, CABAC           : Yes\nFormat settings, ReFrames        : 2 frames\nMuxing mode                      : Container profile=&lt;a class=&quot;__cf_email__&quot; href=&quot;/cdn-cgi/l/email-protection&quot; data-cfemail=&quot;1b4e757075746c755b2f352b&quot;&gt;[email&amp;#160;protected]&lt;/a&gt;&lt;script cf-hash='f9e31' type=&quot;text/javascript&quot;&gt;\n/* &lt;![CDATA[ */!function(){try{var t=&quot;currentScript&quot;in document?document.currentScript:function(){for(var t=document.getElementsByTagName(&quot;script&quot;),e=t.length;e--;)if(t[e].getAttribute(&quot;cf-hash&quot;))return t[e]}();if(t&amp;&amp;t.previousSibling){var e,r,n,i,c=t.previousSibling,a=c.getAttribute(&quot;data-cfemail&quot;);if(a){for(e=&quot;&quot;,r=parseInt(a.substr(0,2),16),n=2;a.length-n;n+=2)i=parseInt(a.substr(n,2),16)^r,e+=String.fromCharCode(i);e=document.createTextNode(e),c.parentNode.replaceChild(e,c)}}}catch(u){}}();/* ]]&gt; */&lt;/script&gt;\nCodec ID                         : V_MPEG4/ISO/AVC\nBit rate                         : 5 794 Kbps\nWidth                            : 1 920 pixels\nHeight                           : 1 080 pixels\nDisplay aspect ratio             : 16:9\nFrame rate                       : 23.976 fps\n\nAudio 1\nFormat                           : AC-3\nFormat/Info                      : Audio Coding 3\nMode extension                   : CM (complete main)\nCodec ID                         : A_AC3\nBit rate mode                    : Constant\nBit rate                         : 384 Kbps\nChannel(s)                       : 6 channels\nChannel positions                : Front: L C R, Side: L R, LFE\nSampling rate                    : 48.0 KHz\nStream size                      : 354 MiB (6%)\nTitle                            : English\n\nAudio 2\nFormat                           : AC-3\nFormat/Info                      : Audio Coding 3\nMode extension                   : CM (complete main)\nCodec ID                         : A_AC3\nBit rate mode                    : Constant\nBit rate                         : 448 Kbps\nChannel(s)                       : 6 channels\nChannel positions                : Front: L C R, Side: L R, LFE\nSampling rate                    : 48.0 KHz\nStream size                      : 412 MiB (7%)\nTitle                            : Polish\nLanguage                         : Polish\n\nText 1\nFormat                           : UTF-8\nCodec ID                         : S_TEXT/UTF8\nCodec ID/Info                    : UTF-8 Plain Text\nTitle                            : English\n\nText 2\nFormat                           : UTF-8\nCodec ID                         : S_TEXT/UTF8\nCodec ID/Info                    : UTF-8 Plain Text\nTitle                            : Polish\nLanguage                         : Polish\n","torrent":{"xt":"urn:btih:f03e7abeb2edb834a000203ae5532a2850693e0c","amp;dn":"Live+Free+or+Die+Hard%2A2007%2A%5BBluRay%5D%5B1080p%5D%5BENG%2C+POL%5D","amp;tr":["udp%3A%2F%2Ftracker.openbittorrent.com%3A80","udp%3A%2F%2Fopen.demonii.com%3A1337","udp%3A%2F%2Ftracker.coppersurfer.tk%3A6969","udp%3A%2F%2Fexodus.desync.com%3A6969"],"infoHash":"f03e7abeb2edb834a000203ae5532a2850693e0c","infoHashBuffer":{"type":"Buffer","data":[240,62,122,190,178,237,184,52,160,0,32,58,229,83,42,40,80,105,62,12]},"announce":[],"urlList":[]}}